<svg width="171" height="192" viewBox="0 0 171 192" fill="none" xmlns="http://www.w3.org/2000/svg">
<path fill-rule="evenodd" clip-rule="evenodd" d="M91.285 53.9162C92.1884 54.2163 92.9776 54.8129 93.5378 55.6193C94.098 56.4257 94.4001 57.3999 94.4 58.4V81.9H112.2C113.014 81.8997 113.812 82.1351 114.509 82.5807C115.205 83.0263 115.772 83.6651 116.148 84.4274C116.524 85.1898 116.695 86.0465 116.643 86.9044C116.59 87.7624 116.315 88.5886 115.849 89.2931L84.699 136.293C84.1569 137.113 83.381 137.73 82.4844 138.052C81.5878 138.375 80.6171 138.387 79.7136 138.086C78.8102 137.786 78.021 137.189 77.461 136.382C76.901 135.575 76.5994 134.6 76.6 133.6V110.1H58.8C57.986 110.1 57.1875 109.865 56.4914 109.419C55.7953 108.974 55.2283 108.335 54.852 107.573C54.4757 106.81 54.3046 105.954 54.3574 105.096C54.4101 104.238 54.6846 103.412 55.151 102.707L86.301 55.7069C86.8439 54.8881 87.6199 54.2735 88.5162 53.9523C89.4125 53.6311 90.3824 53.6202 91.285 53.9209V53.9162Z" fill="#086AD8"/>
</svg>
