<svg width="663" height="217" viewBox="0 0 663 217" fill="none" xmlns="http://www.w3.org/2000/svg">
<path d="M137.401 94C136.548 94 136.121 93.5307 136.121 92.592V11.568C136.121 10.6293 136.548 10.16 137.401 10.16H147.001C147.854 10.16 148.281 10.6293 148.281 11.568V35.376C148.281 37.0827 148.281 38.832 148.281 40.624C148.281 42.3307 148.281 44.0373 148.281 45.744C148.281 47.4507 148.238 49.1573 148.153 50.864H148.281C150.158 48.56 152.036 46.3413 153.913 44.208C155.876 41.9893 157.838 39.7707 159.801 37.552L183.481 10.8C183.822 10.3733 184.334 10.16 185.017 10.16H197.305C197.817 10.16 198.158 10.3307 198.329 10.672C198.585 10.928 198.5 11.312 198.073 11.824L168.633 44.208L200.505 92.336C200.761 92.848 200.804 93.2747 200.633 93.616C200.548 93.872 200.249 94 199.737 94H187.577C186.98 94 186.468 93.7013 186.041 93.104L160.185 53.68L148.281 66.608V92.592C148.281 93.5307 147.854 94 147.001 94H137.401ZM222.424 94C221.656 94 221.144 93.616 220.888 92.848L202.2 32.816C201.944 31.8773 202.328 31.408 203.352 31.408H213.464C214.147 31.408 214.616 31.792 214.872 32.56L224.472 66.608C225.24 69.424 225.965 72.1973 226.648 74.928C227.416 77.6587 228.141 80.3893 228.824 83.12H229.208C229.976 80.4747 230.787 77.8293 231.64 75.184C232.493 72.5387 233.347 69.8933 234.2 67.248L240.6 47.024L236.888 34.224C236.632 33.2 237.016 32.688 238.04 32.688H247C247.853 32.688 248.365 33.0293 248.536 33.712L257.496 67.248C258.179 69.8933 258.819 72.5387 259.416 75.184C260.099 77.8293 260.781 80.4747 261.464 83.12H261.72C262.403 80.3893 263.085 77.6587 263.768 74.928C264.536 72.1973 265.304 69.5093 266.072 66.864L275.672 32.56C275.928 31.792 276.44 31.408 277.208 31.408H287.32C288.344 31.408 288.685 31.8773 288.344 32.816L269.656 92.848C269.571 93.1893 269.4 93.488 269.144 93.744C268.888 93.9147 268.547 94 268.12 94H255.704C255.021 94 254.552 93.616 254.296 92.848L250.456 80.56C249.688 77.6587 248.92 74.7147 248.152 71.728C247.384 68.7413 246.616 65.456 245.848 61.872H245.464C244.696 65.456 243.885 68.6987 243.032 71.6C242.179 74.5013 241.283 77.36 240.344 80.176L236.248 92.848C235.992 93.616 235.48 94 234.712 94H222.424ZM302.121 94C301.268 94 300.841 93.5307 300.841 92.592V32.688C300.841 31.8347 301.268 31.408 302.121 31.408H311.593C312.532 31.408 313.001 31.8347 313.001 32.688V92.592C313.001 93.5307 312.532 94 311.593 94H302.121ZM306.857 21.296C304.297 21.296 302.377 20.6133 301.097 19.248C299.902 17.8827 299.305 16.0907 299.305 13.872V12.464C299.305 10.2453 299.902 8.45333 301.097 7.088C302.377 5.72266 304.297 5.03999 306.857 5.03999C309.502 5.03999 311.422 5.72266 312.617 7.088C313.812 8.45333 314.409 10.2453 314.409 12.464V13.872C314.409 16.0907 313.812 17.8827 312.617 19.248C311.422 20.6133 309.502 21.296 306.857 21.296ZM332.621 94C331.768 94 331.341 93.5307 331.341 92.592V7.98399C331.341 7.04533 331.768 6.576 332.621 6.576H342.093C343.032 6.576 343.501 7.04533 343.501 7.98399V40.496C343.501 42.4587 343.458 44.4213 343.373 46.384C343.373 48.3467 343.373 50.3093 343.373 52.272C343.373 54.2347 343.33 56.1973 343.245 58.16H343.373C344.909 56.4533 346.445 54.704 347.981 52.912C349.602 51.12 351.181 49.3707 352.717 47.664L366.925 32.048C367.352 31.6213 367.906 31.408 368.589 31.408H381.133C381.73 31.408 382.072 31.5787 382.157 31.92C382.328 32.176 382.2 32.5173 381.773 32.944L360.525 55.216L383.693 92.336C383.949 92.848 383.992 93.2747 383.821 93.616C383.65 93.872 383.309 94 382.797 94H371.533C370.936 94 370.381 93.7013 369.869 93.104L351.949 64.048L343.501 72.752V92.592C343.501 93.5307 343.032 94 342.093 94H332.621ZM397.776 94C396.923 94 396.496 93.5307 396.496 92.592V11.568C396.496 10.6293 396.923 10.16 397.776 10.16H419.92C430.416 10.16 438.267 12.4213 443.472 16.944C448.763 21.3813 451.408 27.952 451.408 36.656C451.408 45.2747 448.763 51.8453 443.472 56.368C438.181 60.8053 430.331 63.024 419.92 63.024H408.656V92.592C408.656 93.5307 408.229 94 407.376 94H397.776ZM408.656 52.656H419.664C426.405 52.656 431.312 51.4187 434.384 48.944C437.541 46.384 439.12 42.416 439.12 37.04C439.12 31.2373 437.499 27.056 434.256 24.496C431.099 21.8507 426.149 20.528 419.408 20.528H408.656V52.656ZM500.196 94C499.684 94 499.3 93.8293 499.044 93.488C498.873 93.1467 498.703 92.72 498.532 92.208C498.447 91.5253 498.233 90.0747 497.892 87.856C497.636 85.6373 497.465 83.632 497.38 81.84L496.868 76.848V51.376C496.868 47.28 496.057 44.3787 494.436 42.672C492.815 40.9653 489.956 40.112 485.86 40.112C478.521 40.112 474.895 42.672 474.98 47.792C474.98 48.7307 474.553 49.2 473.7 49.2H464.356C463.417 49.2 462.905 48.3893 462.82 46.768C462.393 41.648 464.313 37.552 468.58 34.48C472.847 31.408 478.735 29.872 486.244 29.872C494.009 29.872 499.727 31.6213 503.396 35.12C507.151 38.6187 509.028 43.9947 509.028 51.248V78.384C509.028 81.2853 509.071 83.9307 509.156 86.32C509.327 88.624 509.54 90.672 509.796 92.464C509.967 93.488 509.54 94 508.516 94H500.196ZM475.62 95.536C470.671 95.536 466.873 94.0427 464.228 91.056C461.583 87.984 460.26 83.5893 460.26 77.872C460.26 73.4347 461.113 69.8507 462.82 67.12C464.612 64.304 467.428 62.128 471.268 60.592C475.193 58.9707 480.399 57.904 486.884 57.392L498.788 56.368V64.944L487.012 65.968C481.465 66.48 477.625 67.5467 475.492 69.168C473.359 70.704 472.292 73.3067 472.292 76.976C472.292 79.7067 472.847 81.7973 473.956 83.248C475.151 84.6133 476.9 85.296 479.204 85.296C481.935 85.296 484.751 84.3573 487.652 82.48C490.639 80.6027 494.479 77.232 499.172 72.368L499.428 82.096C496.527 85.2533 493.796 87.8133 491.236 89.776C488.676 91.7387 486.116 93.1893 483.556 94.128C481.081 95.0667 478.436 95.536 475.62 95.536ZM535.307 117.68C534.283 117.68 533.984 117.125 534.411 116.016L543.371 93.36L519.819 32.944C519.392 31.92 519.691 31.408 520.715 31.408H531.083C531.766 31.408 532.235 31.7493 532.491 32.432L543.371 62C544.395 64.6453 545.376 67.4187 546.315 70.32C547.254 73.136 548.15 75.952 549.003 78.768H549.259C550.112 75.952 551.051 73.136 552.075 70.32C553.099 67.504 554.08 64.7307 555.019 62L565.771 32.432C566.027 31.7493 566.582 31.408 567.435 31.408H577.291C577.718 31.408 578.016 31.5787 578.187 31.92C578.443 32.176 578.486 32.5173 578.315 32.944L546.187 116.656C545.931 117.339 545.462 117.68 544.779 117.68H535.307Z" fill="#086AD8"/>
<path fill-rule="evenodd" clip-rule="evenodd" d="M50.285 4.91625C51.1884 5.21631 51.9776 5.81292 52.5378 6.61932C53.098 7.42572 53.4001 8.39985 53.4 9.40005V32.9H71.2C72.014 32.8997 72.8125 33.1351 73.5086 33.5807C74.2047 34.0263 74.7717 34.6651 75.148 35.4274C75.5243 36.1898 75.6954 37.0465 75.6426 37.9044C75.5899 38.7624 75.3154 39.5886 74.849 40.2931L43.699 87.2931C43.1569 88.1135 42.381 88.7297 41.4844 89.0522C40.5878 89.3746 39.6171 89.3865 38.7137 89.0861C37.8102 88.7857 37.021 88.1886 36.461 87.3818C35.901 86.575 35.5994 85.6004 35.6 84.6V61.1H17.8C16.986 61.1004 16.1875 60.865 15.4914 60.4194C14.7953 59.9737 14.2283 59.335 13.852 58.5726C13.4757 57.8103 13.3046 56.9535 13.3574 56.0956C13.4101 55.2377 13.6846 54.4115 14.151 53.7069L45.301 6.70695C45.8439 5.88814 46.6199 5.27351 47.5162 4.95233C48.4125 4.63114 49.3824 4.62015 50.285 4.92095V4.91625Z" fill="#086AD8"/>
</svg>
