<svg width="663" height="217" viewBox="0 0 663 217" fill="none" xmlns="http://www.w3.org/2000/svg">
<path d="M177.401 136C176.548 136 176.121 135.531 176.121 134.592V53.568C176.121 52.6293 176.548 52.16 177.401 52.16H187.001C187.854 52.16 188.281 52.6293 188.281 53.568V77.376C188.281 79.0827 188.281 80.832 188.281 82.624C188.281 84.3307 188.281 86.0373 188.281 87.744C188.281 89.4507 188.238 91.1573 188.153 92.864H188.281C190.158 90.56 192.036 88.3413 193.913 86.208C195.876 83.9893 197.838 81.7707 199.801 79.552L223.481 52.8C223.822 52.3733 224.334 52.16 225.017 52.16H237.305C237.817 52.16 238.158 52.3307 238.329 52.672C238.585 52.928 238.5 53.312 238.073 53.824L208.633 86.208L240.505 134.336C240.761 134.848 240.804 135.275 240.633 135.616C240.548 135.872 240.249 136 239.737 136H227.577C226.98 136 226.468 135.701 226.041 135.104L200.185 95.68L188.281 108.608V134.592C188.281 135.531 187.854 136 187.001 136H177.401ZM262.424 136C261.656 136 261.144 135.616 260.888 134.848L242.2 74.816C241.944 73.8773 242.328 73.408 243.352 73.408H253.464C254.147 73.408 254.616 73.792 254.872 74.56L264.472 108.608C265.24 111.424 265.965 114.197 266.648 116.928C267.416 119.659 268.141 122.389 268.824 125.12H269.208C269.976 122.475 270.787 119.829 271.64 117.184C272.493 114.539 273.347 111.893 274.2 109.248L280.6 89.024L276.888 76.224C276.632 75.2 277.016 74.688 278.04 74.688H287C287.853 74.688 288.365 75.0293 288.536 75.712L297.496 109.248C298.179 111.893 298.819 114.539 299.416 117.184C300.099 119.829 300.781 122.475 301.464 125.12H301.72C302.403 122.389 303.085 119.659 303.768 116.928C304.536 114.197 305.304 111.509 306.072 108.864L315.672 74.56C315.928 73.792 316.44 73.408 317.208 73.408H327.32C328.344 73.408 328.685 73.8773 328.344 74.816L309.656 134.848C309.571 135.189 309.4 135.488 309.144 135.744C308.888 135.915 308.547 136 308.12 136H295.704C295.021 136 294.552 135.616 294.296 134.848L290.456 122.56C289.688 119.659 288.92 116.715 288.152 113.728C287.384 110.741 286.616 107.456 285.848 103.872H285.464C284.696 107.456 283.885 110.699 283.032 113.6C282.179 116.501 281.283 119.36 280.344 122.176L276.248 134.848C275.992 135.616 275.48 136 274.712 136H262.424ZM342.121 136C341.268 136 340.841 135.531 340.841 134.592V74.688C340.841 73.8347 341.268 73.408 342.121 73.408H351.593C352.532 73.408 353.001 73.8347 353.001 74.688V134.592C353.001 135.531 352.532 136 351.593 136H342.121ZM346.857 63.296C344.297 63.296 342.377 62.6133 341.097 61.248C339.902 59.8827 339.305 58.0907 339.305 55.872V54.464C339.305 52.2453 339.902 50.4533 341.097 49.088C342.377 47.7227 344.297 47.04 346.857 47.04C349.502 47.04 351.422 47.7227 352.617 49.088C353.812 50.4533 354.409 52.2453 354.409 54.464V55.872C354.409 58.0907 353.812 59.8827 352.617 61.248C351.422 62.6133 349.502 63.296 346.857 63.296ZM372.621 136C371.768 136 371.341 135.531 371.341 134.592V49.984C371.341 49.0453 371.768 48.576 372.621 48.576H382.093C383.032 48.576 383.501 49.0453 383.501 49.984V82.496C383.501 84.4587 383.458 86.4213 383.373 88.384C383.373 90.3467 383.373 92.3093 383.373 94.272C383.373 96.2347 383.33 98.1973 383.245 100.16H383.373C384.909 98.4533 386.445 96.704 387.981 94.912C389.602 93.12 391.181 91.3707 392.717 89.664L406.925 74.048C407.352 73.6213 407.906 73.408 408.589 73.408H421.133C421.73 73.408 422.072 73.5787 422.157 73.92C422.328 74.176 422.2 74.5173 421.773 74.944L400.525 97.216L423.693 134.336C423.949 134.848 423.992 135.275 423.821 135.616C423.65 135.872 423.309 136 422.797 136H411.533C410.936 136 410.381 135.701 409.869 135.104L391.949 106.048L383.501 114.752V134.592C383.501 135.531 383.032 136 382.093 136H372.621ZM437.776 136C436.923 136 436.496 135.531 436.496 134.592V53.568C436.496 52.6293 436.923 52.16 437.776 52.16H459.92C470.416 52.16 478.267 54.4213 483.472 58.944C488.763 63.3813 491.408 69.952 491.408 78.656C491.408 87.2747 488.763 93.8453 483.472 98.368C478.181 102.805 470.331 105.024 459.92 105.024H448.656V134.592C448.656 135.531 448.229 136 447.376 136H437.776ZM448.656 94.656H459.664C466.405 94.656 471.312 93.4187 474.384 90.944C477.541 88.384 479.12 84.416 479.12 79.04C479.12 73.2373 477.499 69.056 474.256 66.496C471.099 63.8507 466.149 62.528 459.408 62.528H448.656V94.656ZM540.196 136C539.684 136 539.3 135.829 539.044 135.488C538.873 135.147 538.703 134.72 538.532 134.208C538.447 133.525 538.233 132.075 537.892 129.856C537.636 127.637 537.465 125.632 537.38 123.84L536.868 118.848V93.376C536.868 89.28 536.057 86.3787 534.436 84.672C532.815 82.9653 529.956 82.112 525.86 82.112C518.521 82.112 514.895 84.672 514.98 89.792C514.98 90.7307 514.553 91.2 513.7 91.2H504.356C503.417 91.2 502.905 90.3893 502.82 88.768C502.393 83.648 504.313 79.552 508.58 76.48C512.847 73.408 518.735 71.872 526.244 71.872C534.009 71.872 539.727 73.6213 543.396 77.12C547.151 80.6187 549.028 85.9947 549.028 93.248V120.384C549.028 123.285 549.071 125.931 549.156 128.32C549.327 130.624 549.54 132.672 549.796 134.464C549.967 135.488 549.54 136 548.516 136H540.196ZM515.62 137.536C510.671 137.536 506.873 136.043 504.228 133.056C501.583 129.984 500.26 125.589 500.26 119.872C500.26 115.435 501.113 111.851 502.82 109.12C504.612 106.304 507.428 104.128 511.268 102.592C515.193 100.971 520.399 99.904 526.884 99.392L538.788 98.368V106.944L527.012 107.968C521.465 108.48 517.625 109.547 515.492 111.168C513.359 112.704 512.292 115.307 512.292 118.976C512.292 121.707 512.847 123.797 513.956 125.248C515.151 126.613 516.9 127.296 519.204 127.296C521.935 127.296 524.751 126.357 527.652 124.48C530.639 122.603 534.479 119.232 539.172 114.368L539.428 124.096C536.527 127.253 533.796 129.813 531.236 131.776C528.676 133.739 526.116 135.189 523.556 136.128C521.081 137.067 518.436 137.536 515.62 137.536ZM575.307 159.68C574.283 159.68 573.984 159.125 574.411 158.016L583.371 135.36L559.819 74.944C559.392 73.92 559.691 73.408 560.715 73.408H571.083C571.766 73.408 572.235 73.7493 572.491 74.432L583.371 104C584.395 106.645 585.376 109.419 586.315 112.32C587.254 115.136 588.15 117.952 589.003 120.768H589.259C590.112 117.952 591.051 115.136 592.075 112.32C593.099 109.504 594.08 106.731 595.019 104L605.771 74.432C606.027 73.7493 606.582 73.408 607.435 73.408H617.291C617.718 73.408 618.016 73.5787 618.187 73.92C618.443 74.176 618.486 74.5173 618.315 74.944L586.187 158.656C585.931 159.339 585.462 159.68 584.779 159.68H575.307Z" fill="#086AD8"/>
<path fill-rule="evenodd" clip-rule="evenodd" d="M90.285 46.9162C91.1884 47.2163 91.9776 47.8129 92.5378 48.6193C93.098 49.4257 93.4001 50.3999 93.4 51.4V74.9H111.2C112.014 74.8997 112.812 75.1351 113.509 75.5807C114.205 76.0263 114.772 76.6651 115.148 77.4274C115.524 78.1898 115.695 79.0465 115.643 79.9044C115.59 80.7624 115.315 81.5886 114.849 82.2931L83.699 129.293C83.1569 130.113 82.381 130.73 81.4844 131.052C80.5878 131.375 79.6171 131.387 78.7137 131.086C77.8102 130.786 77.021 130.189 76.461 129.382C75.901 128.575 75.5994 127.6 75.6 126.6V103.1H57.8C56.986 103.1 56.1875 102.865 55.4914 102.419C54.7953 101.974 54.2283 101.335 53.852 100.573C53.4757 99.8103 53.3046 98.9535 53.3574 98.0956C53.4101 97.2377 53.6846 96.4115 54.151 95.7069L85.301 48.7069C85.8439 47.8881 86.6199 47.2735 87.5162 46.9523C88.4125 46.6311 89.3824 46.6202 90.285 46.9209V46.9162Z" fill="#086AD8"/>
</svg>
