<svg width="663" height="217" viewBox="0 0 663 217" fill="none" xmlns="http://www.w3.org/2000/svg">
<path d="M137.401 136C136.548 136 136.121 135.531 136.121 134.592V53.568C136.121 52.6293 136.548 52.16 137.401 52.16H147.001C147.854 52.16 148.281 52.6293 148.281 53.568V77.376C148.281 79.0827 148.281 80.832 148.281 82.624C148.281 84.3307 148.281 86.0373 148.281 87.744C148.281 89.4507 148.238 91.1573 148.153 92.864H148.281C150.158 90.56 152.036 88.3413 153.913 86.208C155.876 83.9893 157.838 81.7707 159.801 79.552L183.481 52.8C183.822 52.3733 184.334 52.16 185.017 52.16H197.305C197.817 52.16 198.158 52.3307 198.329 52.672C198.585 52.928 198.5 53.312 198.073 53.824L168.633 86.208L200.505 134.336C200.761 134.848 200.804 135.275 200.633 135.616C200.548 135.872 200.249 136 199.737 136H187.577C186.98 136 186.468 135.701 186.041 135.104L160.185 95.68L148.281 108.608V134.592C148.281 135.531 147.854 136 147.001 136H137.401ZM222.424 136C221.656 136 221.144 135.616 220.888 134.848L202.2 74.816C201.944 73.8773 202.328 73.408 203.352 73.408H213.464C214.147 73.408 214.616 73.792 214.872 74.56L224.472 108.608C225.24 111.424 225.965 114.197 226.648 116.928C227.416 119.659 228.141 122.389 228.824 125.12H229.208C229.976 122.475 230.787 119.829 231.64 117.184C232.493 114.539 233.347 111.893 234.2 109.248L240.6 89.024L236.888 76.224C236.632 75.2 237.016 74.688 238.04 74.688H247C247.853 74.688 248.365 75.0293 248.536 75.712L257.496 109.248C258.179 111.893 258.819 114.539 259.416 117.184C260.099 119.829 260.781 122.475 261.464 125.12H261.72C262.403 122.389 263.085 119.659 263.768 116.928C264.536 114.197 265.304 111.509 266.072 108.864L275.672 74.56C275.928 73.792 276.44 73.408 277.208 73.408H287.32C288.344 73.408 288.685 73.8773 288.344 74.816L269.656 134.848C269.571 135.189 269.4 135.488 269.144 135.744C268.888 135.915 268.547 136 268.12 136H255.704C255.021 136 254.552 135.616 254.296 134.848L250.456 122.56C249.688 119.659 248.92 116.715 248.152 113.728C247.384 110.741 246.616 107.456 245.848 103.872H245.464C244.696 107.456 243.885 110.699 243.032 113.6C242.179 116.501 241.283 119.36 240.344 122.176L236.248 134.848C235.992 135.616 235.48 136 234.712 136H222.424ZM302.121 136C301.268 136 300.841 135.531 300.841 134.592V74.688C300.841 73.8347 301.268 73.408 302.121 73.408H311.593C312.532 73.408 313.001 73.8347 313.001 74.688V134.592C313.001 135.531 312.532 136 311.593 136H302.121ZM306.857 63.296C304.297 63.296 302.377 62.6133 301.097 61.248C299.902 59.8827 299.305 58.0907 299.305 55.872V54.464C299.305 52.2453 299.902 50.4533 301.097 49.088C302.377 47.7227 304.297 47.04 306.857 47.04C309.502 47.04 311.422 47.7227 312.617 49.088C313.812 50.4533 314.409 52.2453 314.409 54.464V55.872C314.409 58.0907 313.812 59.8827 312.617 61.248C311.422 62.6133 309.502 63.296 306.857 63.296ZM332.621 136C331.768 136 331.341 135.531 331.341 134.592V49.984C331.341 49.0453 331.768 48.576 332.621 48.576H342.093C343.032 48.576 343.501 49.0453 343.501 49.984V82.496C343.501 84.4587 343.458 86.4213 343.373 88.384C343.373 90.3467 343.373 92.3093 343.373 94.272C343.373 96.2347 343.33 98.1973 343.245 100.16H343.373C344.909 98.4533 346.445 96.704 347.981 94.912C349.602 93.12 351.181 91.3707 352.717 89.664L366.925 74.048C367.352 73.6213 367.906 73.408 368.589 73.408H381.133C381.73 73.408 382.072 73.5787 382.157 73.92C382.328 74.176 382.2 74.5173 381.773 74.944L360.525 97.216L383.693 134.336C383.949 134.848 383.992 135.275 383.821 135.616C383.65 135.872 383.309 136 382.797 136H371.533C370.936 136 370.381 135.701 369.869 135.104L351.949 106.048L343.501 114.752V134.592C343.501 135.531 343.032 136 342.093 136H332.621ZM397.776 136C396.923 136 396.496 135.531 396.496 134.592V53.568C396.496 52.6293 396.923 52.16 397.776 52.16H419.92C430.416 52.16 438.267 54.4213 443.472 58.944C448.763 63.3813 451.408 69.952 451.408 78.656C451.408 87.2747 448.763 93.8453 443.472 98.368C438.181 102.805 430.331 105.024 419.92 105.024H408.656V134.592C408.656 135.531 408.229 136 407.376 136H397.776ZM408.656 94.656H419.664C426.405 94.656 431.312 93.4187 434.384 90.944C437.541 88.384 439.12 84.416 439.12 79.04C439.12 73.2373 437.499 69.056 434.256 66.496C431.099 63.8507 426.149 62.528 419.408 62.528H408.656V94.656ZM500.196 136C499.684 136 499.3 135.829 499.044 135.488C498.873 135.147 498.703 134.72 498.532 134.208C498.447 133.525 498.233 132.075 497.892 129.856C497.636 127.637 497.465 125.632 497.38 123.84L496.868 118.848V93.376C496.868 89.28 496.057 86.3787 494.436 84.672C492.815 82.9653 489.956 82.112 485.86 82.112C478.521 82.112 474.895 84.672 474.98 89.792C474.98 90.7307 474.553 91.2 473.7 91.2H464.356C463.417 91.2 462.905 90.3893 462.82 88.768C462.393 83.648 464.313 79.552 468.58 76.48C472.847 73.408 478.735 71.872 486.244 71.872C494.009 71.872 499.727 73.6213 503.396 77.12C507.151 80.6187 509.028 85.9947 509.028 93.248V120.384C509.028 123.285 509.071 125.931 509.156 128.32C509.327 130.624 509.54 132.672 509.796 134.464C509.967 135.488 509.54 136 508.516 136H500.196ZM475.62 137.536C470.671 137.536 466.873 136.043 464.228 133.056C461.583 129.984 460.26 125.589 460.26 119.872C460.26 115.435 461.113 111.851 462.82 109.12C464.612 106.304 467.428 104.128 471.268 102.592C475.193 100.971 480.399 99.904 486.884 99.392L498.788 98.368V106.944L487.012 107.968C481.465 108.48 477.625 109.547 475.492 111.168C473.359 112.704 472.292 115.307 472.292 118.976C472.292 121.707 472.847 123.797 473.956 125.248C475.151 126.613 476.9 127.296 479.204 127.296C481.935 127.296 484.751 126.357 487.652 124.48C490.639 122.603 494.479 119.232 499.172 114.368L499.428 124.096C496.527 127.253 493.796 129.813 491.236 131.776C488.676 133.739 486.116 135.189 483.556 136.128C481.081 137.067 478.436 137.536 475.62 137.536ZM535.307 159.68C534.283 159.68 533.984 159.125 534.411 158.016L543.371 135.36L519.819 74.944C519.392 73.92 519.691 73.408 520.715 73.408H531.083C531.766 73.408 532.235 73.7493 532.491 74.432L543.371 104C544.395 106.645 545.376 109.419 546.315 112.32C547.254 115.136 548.15 117.952 549.003 120.768H549.259C550.112 117.952 551.051 115.136 552.075 112.32C553.099 109.504 554.08 106.731 555.019 104L565.771 74.432C566.027 73.7493 566.582 73.408 567.435 73.408H577.291C577.718 73.408 578.016 73.5787 578.187 73.92C578.443 74.176 578.486 74.5173 578.315 74.944L546.187 158.656C545.931 159.339 545.462 159.68 544.779 159.68H535.307Z" fill="#086AD8"/>
<path fill-rule="evenodd" clip-rule="evenodd" d="M50.285 46.9162C51.1884 47.2163 51.9776 47.8129 52.5378 48.6193C53.098 49.4257 53.4001 50.3999 53.4 51.4V74.9H71.2C72.014 74.8997 72.8125 75.1351 73.5086 75.5807C74.2047 76.0263 74.7717 76.6651 75.148 77.4274C75.5243 78.1898 75.6954 79.0465 75.6426 79.9044C75.5899 80.7624 75.3154 81.5886 74.849 82.2931L43.699 129.293C43.1569 130.113 42.381 130.73 41.4844 131.052C40.5878 131.375 39.6171 131.387 38.7137 131.086C37.8102 130.786 37.021 130.189 36.461 129.382C35.901 128.575 35.5994 127.6 35.6 126.6V103.1H17.8C16.986 103.1 16.1875 102.865 15.4914 102.419C14.7953 101.974 14.2283 101.335 13.852 100.573C13.4757 99.8103 13.3046 98.9535 13.3574 98.0956C13.4101 97.2377 13.6846 96.4115 14.151 95.7069L45.301 48.7069C45.8439 47.8881 46.6199 47.2735 47.5162 46.9523C48.4125 46.6311 49.3824 46.6202 50.285 46.9209V46.9162Z" fill="#086AD8"/>
</svg>
